<svg version="1.1" xmlns="http://www.w3.org/2000/svg" xmlns:xlink="http://www.w3.org/1999/xlink" width="180.84328" height="119.3664" viewBox="0,0,180.84328,119.3664"><g transform="translate(-179.09417,-129.81147)"><g data-paper-data="{&quot;isPaintingLayer&quot;:true}" fill-rule="nonzero" stroke="none" stroke-width="0.5" stroke-linecap="butt" stroke-linejoin="miter" stroke-miterlimit="10" stroke-dasharray="" stroke-dashoffset="0" style="mix-blend-mode: normal"><path d="M195.83077,222.88671c0.24899,6.50824 -0.31719,12.98331 -0.3495,19.47449c-0.05565,0.72628 -0.67842,1.66021 -0.16694,2.17883c0.38886,0.39429 0.77796,-0.88582 1.31702,-1.01271c1.45939,-0.34352 2.99326,-0.19279 4.48397,-0.35276c3.99388,-0.42857 7.94528,-1.1997 11.93187,-1.65814c6.85697,-0.78853 13.51031,-3.27553 20.34669,-4.0015c4.53181,-0.48124 9.37426,-0.01493 13.93946,-0.01493c2.61557,0 5.39772,-0.28817 8.09974,-0.24414c-3.74493,-2.26414 -7.03413,-5.33828 -8.18266,-9.61419c-0.71423,-2.65903 0.08387,-6.10883 0.25441,-8.79701c0.05275,-0.83152 -0.01444,-2.47342 -0.02999,-3.94109c-3.17375,1.24695 -6.53296,2.02319 -9.93531,2.58791c-8.41632,0.02496 -16.32605,-1.71217 -24.13468,-4.83695c-4.76785,-1.90795 -9.99995,-4.09479 -13.57055,-7.95381c-0.8739,-0.94449 -1.67714,-1.99186 -2.42727,-3.08767c-2.46344,7.08035 -1.86179,13.81045 -1.57626,21.27367zM253.701,212.11976c-1.93962,2.41402 -1.02089,4.03389 -1.20583,7.03558c-0.12829,2.08222 -0.95796,5.13117 -0.41225,7.20299c1.30843,4.96759 7.38781,7.67838 11.60789,9.36107l0.07782,0.07668l0.01607,-0.03215l2.61822,1.30911c0.84561,0.40086 1.43041,1.26228 1.43041,2.26029c0,1.29267 -0.98109,2.35619 -2.23928,2.48657l-4.93437,0.58051l-0.00201,-0.01708c-0.04004,0.00963 -0.08012,0.0191 -0.12024,0.02843c-0.50061,0.11633 -8.28322,0.08823 -8.87077,0.08824c-5.77937,0.00007 -11.98509,-0.61296 -17.72721,-0.01493c-2.72277,0.28357 -5.41819,1.4258 -8.09705,1.96255c-5.51982,1.10598 -10.92129,1.89798 -16.49726,2.69511c-3.98349,0.56947 -7.96281,1.04025 -11.9765,1.32994c-1.56059,0.11264 -3.46299,1.30029 -4.68298,0.32062c-1.61439,-1.29637 -1.44463,-3.88078 -2.16694,-5.82117c-0.02619,-6.61917 0.57371,-13.22493 0.31717,-19.85884c-0.32701,-8.45627 -0.84667,-15.98241 2.17747,-24.04484l1.0221,-2.38658c0,0 0.06027,-0.14063 0.18578,-0.3374c-0.02202,-0.03912 -0.044,-0.07819 -0.06595,-0.11722c-1.62482,-2.88852 -3.39936,-6.17832 -3.95634,-9.49346c-0.88555,-5.27079 0.09981,-11.29351 1.48563,-16.34323c0.99678,-1.81204 2.07867,-3.52188 3.24113,-5.14065c-2.74671,0.13341 -5.48158,0.36851 -8.25905,0.25009c-1.64286,-0.07004 -3.48996,0.47137 -4.92148,-0.33773c-2.71207,-1.53286 -2.81159,-4.94747 -2.55979,-7.46774c0.48162,-4.82038 2.73336,-9.99513 5.1044,-14.13466c1.98336,-2.32685 4.08163,-5.00467 6.34282,-7.05891c5.34414,-4.85503 13.38081,-6.65606 20.36739,-6.66763c2.89013,-0.00479 8.1182,-0.40696 10.08711,2.4571c0.76741,1.11631 0.3293,2.69084 0.41289,4.0429c0.17248,2.78973 0.4629,5.48266 0.59608,8.24557c0.90034,-0.29403 1.82841,-0.53424 2.79504,-0.70615c7.83048,-1.39259 15.52058,0.8199 23.04855,2.70189c0,0 0.90902,0.22725 1.47491,0.96002c4.68331,1.22978 9.26275,2.8449 11.38364,7.49235c1.28024,1.50686 2.3003,3.21802 3.51419,4.77883c2.21567,2.8489 5.41722,5.52179 6.70991,9.02363c0.02597,0.07036 0.05063,0.14393 0.07404,0.22046c2.66028,-8.9078 11.58045,-14.40084 20.74009,-11.07251c1.45776,0.52971 4.30137,2.19431 5.92723,4.06166c4.98543,-8.88864 17.85972,-12.95311 26.6981,-6.73384c1.29379,0.9104 2.83561,2.75481 3.79411,4.73414c1.9292,-2.59184 4.30749,-4.70624 7.68632,-5.76543c7.08421,-2.22075 17.04599,2.37225 20.54979,8.79837c1.89117,3.4685 1.66944,4.17798 1.67125,7.31856c1.17904,0.57398 1.32435,2.02703 1.32435,2.02703c0.3934,3.96984 1.45337,11.47325 -2.2,14.48541c-3.16733,2.61143 -10.87183,1.26335 -14.62092,1.26335c-11.11419,0 -21.95775,0.55585 -32.98464,1.9342c-8.28472,1.02296 -17.4995,0.90587 -25.83738,0.3943c-4.69166,-0.28786 -9.16353,-2.10738 -13.82141,-2.68114l-0.35658,0.01931c0,0 -0.28769,-0.00001 -0.66788,-0.0976c-0.88583,2.15617 -1.9454,4.3195 -3.07491,6.67231c-2.81095,5.8553 -6.04555,12.4625 -11.38534,16.56247c-0.15152,0.11634 -0.3039,0.23069 -0.45714,0.3431c-0.14883,0.48197 -0.38039,0.80614 -0.38039,0.80614zM337.39113,159.0594c-3.33735,1.03784 -5.24971,3.79735 -6.94998,6.60878l-0.28644,2.57793c-0.03289,0.33661 -0.13254,0.65364 -0.28553,0.9377c3.62223,0.08199 6.68663,0.45297 10.41372,0.99893c4.08659,0.59861 8.695,0.00259 12.85838,-0.01564c-0.52078,-6.91704 -8.6526,-13.31486 -15.75015,-11.1077zM325.27673,168.73588l-0.98177,-2.94531l0.03098,-0.01032c-0.02553,-0.04596 -0.0507,-0.09215 -0.07551,-0.13858c-1.31322,-2.45698 -0.08942,-4.54499 -2.7122,-6.28023c-6.8596,-4.53833 -18.471,-0.8387 -20.40417,7.38842l-0.31591,2.52732c-0.05678,0.5148 -0.26988,0.98253 -0.59078,1.35466c5.32398,0.28046 10.64776,0.52694 15.95063,0.20633c3.22393,-0.19492 6.23382,-1.0857 9.38855,-1.48134c-0.12345,-0.19069 -0.22163,-0.39924 -0.28982,-0.62094zM296.13865,170.19821l-1.30926,-2.29119l0.02202,-0.01259c-0.02749,-0.03262 -0.05476,-0.06545 -0.08182,-0.09848c-1.02175,-1.24729 -1.24077,-3.18091 -2.56471,-4.10118c-6.65028,-4.62259 -14.74035,0.12751 -16.4462,7.2449l0.07464,-0.27301c0,0 0,0.46345 -0.19954,0.99126c0.82053,-0.0089 1.63263,-0.04891 2.42674,-0.143c3.2389,-0.38375 5.94538,-1.34034 9.27279,-1.34826c2.97805,-0.00708 5.96129,0.11059 8.94608,0.25901c-0.05082,-0.07307 -0.09783,-0.14899 -0.14076,-0.22746zM281.79238,185.20918c3.83229,0.73144 7.99453,0.29083 11.87429,0.29083c5.12484,0 10.30817,0.28394 15.39519,-0.36052c11.23255,-1.40407 22.28344,-1.97281 33.60481,-1.97281c2.44444,0 4.8889,-0.0076 7.33333,0c1.34877,0.00419 2.99011,0.76957 4.04574,-0.06998c0.31165,-0.24785 0.15554,-0.78105 0.23343,-1.17155c0.48325,-2.42281 0.55584,-4.48895 0.42001,-6.75924c-0.02117,0.00077 -0.03252,0.00077 -0.03252,0.00077h-1.33333c-4.41948,0 -9.25158,0.59287 -13.61622,-0.01605c-4.13633,-0.57707 -7.17206,-0.98395 -11.38378,-0.98395c-4.08464,-0.01805 -7.79081,1.40142 -11.84466,1.66183c-10.58841,0.68018 -21.33345,-1.85029 -31.88255,-0.67676c-2.03623,0.22652 -3.96508,1.09533 -6,1.33333c-2.30305,0.26936 -4.73696,0.13511 -7.11172,0.05731c-0.0444,2.28319 -0.35021,4.3461 -0.848,6.31063c3.80037,0.4816 7.3947,1.64018 11.14596,2.35616zM216.51493,139.27279c-0.11171,-0.97344 -0.10671,-1.96393 -0.01493,-2.93945c0.0423,-0.44965 0.57648,-0.86948 0.41289,-1.29044c-0.10877,-0.27989 -0.60054,0.05768 -0.90009,0.03675c-2.41566,-0.16879 -4.98132,-0.55322 -7.40668,-0.26124c-4.95563,0.59659 -10.75289,1.80621 -14.57207,5.34729c-2.00563,1.85958 -3.86221,4.19472 -5.65718,6.27442c-2.03501,3.57297 -3.55489,7.79045 -4.22894,11.86534c-0.13788,0.83352 -0.72403,2.3795 0.10688,2.53226c0.79842,0.14678 1.60163,-0.28717 2.41185,-0.33773c3.73029,-0.23279 7.59895,-0.32694 11.33334,-0.33334h0.33334c0,0 0.29146,0 0.67534,0.09951c4.28833,-4.61257 9.35937,-8.40786 15.0613,-11.7568c1.03374,-0.60716 2.05763,-1.20176 3.09233,-1.75616c-0.03963,-2.63319 -0.34296,-4.82772 -0.64738,-7.48043zM244.24903,150.79471c-6.0386,-1.54745 -12.23003,-3.09181 -18.47349,-2.0008c-3.4235,0.59824 -6.23904,2.29792 -9.17884,4.03005c-8.40326,4.95117 -15.46314,10.88675 -20.28128,19.45215c-1.12763,4.16932 -1.89481,9.32752 -1.18103,13.65677c0.44933,2.72534 2.04521,5.47221 3.37699,7.83987c1.43979,2.55969 3.00025,5.33164 4.98766,7.52653c2.9944,3.30702 7.73228,5.10137 11.76278,6.71285c7.07318,2.828 14.24149,4.46999 21.86532,4.49638c5.09964,-0.85415 10.1313,-2.28146 14.33434,-5.47904c4.7068,-3.58084 7.49252,-9.65454 9.94799,-14.77086c2.70356,-5.63325 5.09934,-9.94681 5.09054,-16.25862c-0.00007,-0.05398 0.12189,-4.68756 -0.18899,-5.49614c-1.10514,-2.87443 -4.14038,-5.30784 -5.95676,-7.64303c-1.32389,-1.70203 -2.45201,-3.55367 -3.81914,-5.22117c-1.48742,-3.77728 -5.74439,-4.62744 -9.47479,-5.54763l-1.33334,-0.33334c0,0 -0.91229,-0.22807 -1.47796,-0.96398z" fill="#000000"/><path d="M197.36744,201.5825c0.75014,1.09581 1.63347,2.20305 2.50736,3.14753c3.57061,3.85903 8.72469,5.98348 13.49254,7.89143c7.80863,3.12479 15.80132,4.87413 24.21764,4.84918c3.40234,-0.56472 6.763,-1.33747 9.93675,-2.58442c0.01555,1.46766 0.08495,3.11748 0.0322,3.949c-0.17054,2.68818 -0.96877,6.1575 -0.25454,8.81653c1.14852,4.27591 4.43403,7.36119 8.17895,9.62533c-2.70202,-0.04403 -5.48756,0.25022 -8.10313,0.25022c-4.5652,0 -9.42497,-0.45007 -13.95678,0.03117c-6.83638,0.72597 -13.54195,3.21107 -20.39892,3.9996c-3.98659,0.45844 -7.94878,1.21986 -11.94266,1.64844c-1.49072,0.15997 -3.02683,0.00632 -4.48622,0.34984c-0.53905,0.12689 -0.92811,1.40707 -1.31697,1.01278c-0.51148,-0.51862 0.10997,-1.45451 0.16561,-2.18078c0.0323,-6.49118 0.59049,-12.99378 0.3415,-19.50201c-0.28553,-7.46322 -0.87676,-14.22348 1.58667,-21.30383z" data-paper-data="{&quot;noHover&quot;:false,&quot;origItem&quot;:[&quot;Path&quot;,{&quot;applyMatrix&quot;:true,&quot;segments&quot;:[[[195.83077,222.88671],[-0.28553,-7.46322],[0.24899,6.50824]],[[195.48127,242.36121],[0.0323,-6.49118],[-0.05565,0.72628]],[[195.31433,244.54004],[-0.51148,-0.51862],[0.38886,0.39429]],[[196.63135,243.52733],[-0.53905,0.12689],[1.45939,-0.34352]],[[201.11532,243.17457],[-1.49072,0.15997],[3.99388,-0.42857]],[[213.04719,241.51643],[-3.98659,0.45844],[6.85697,-0.78853]],[[233.39387,237.51493],[-6.83638,0.72597],[4.53181,-0.48124]],[[247.33333,237.5],[-4.5652,0],[2.61557,0]],[[255.43307,237.25586],[-2.70202,-0.04403],[-3.74493,-2.26414]],[[247.25042,227.64167],[1.14852,4.27591],[-0.71423,-2.65903]],[[247.50483,218.84466],[-0.17054,2.68818],[0.05275,-0.83152]],[[247.47484,214.90357],[0.01555,1.46766],[-3.17375,1.24695]],[[237.53954,217.49148],[3.40234,-0.56472],[-8.41632,0.02496]],[[213.40486,212.65453],[7.80863,3.12479],[-4.76785,-1.90795]],[[199.8343,204.70072],[3.57061,3.85903],[-0.8739,-0.94449]],[[197.40703,201.61304],[0.75014,1.09581],[-2.46344,7.08035]]],&quot;closed&quot;:true}]}" fill="#009812"/><path d="M217.21221,146.75011c-1.03471,0.55439 -2.05857,1.15475 -3.09231,1.76191c-5.70192,3.34894 -10.8288,7.19124 -15.11712,11.80381c-0.38388,-0.09951 -0.67803,-0.09991 -0.67803,-0.09991l-0.33461,-0.00024c-3.73439,0.00639 -7.62999,0.08537 -11.36028,0.31816c-0.81021,0.05056 -1.6156,0.48198 -2.41402,0.3352c-0.83092,-0.15276 -0.24783,-1.70302 -0.10995,-2.53653c0.67405,-4.07489 2.18628,-8.32496 4.22129,-11.89793c1.79497,-2.0797 3.66894,-4.44746 5.67456,-6.30704c3.81919,-3.54108 9.67528,-4.75494 14.63091,-5.35153c2.42535,-0.29198 5.00318,0.10316 7.41884,0.27195c0.29955,0.02093 0.79214,-0.31562 0.90091,-0.03573c0.16359,0.42096 -0.36943,0.84236 -0.41173,1.292c-0.09178,0.97553 -0.09329,1.97164 0.01842,2.94509c0.30442,2.6527 0.6135,4.8676 0.65313,7.50079z" data-paper-data="{&quot;noHover&quot;:false,&quot;origItem&quot;:[&quot;Path&quot;,{&quot;applyMatrix&quot;:true,&quot;segments&quot;:[[[216.51493,139.27279],[0.30442,2.6527],[-0.11171,-0.97344]],[[216.5,136.33334],[-0.09178,0.97553],[0.0423,-0.44965]],[[216.9129,135.04289],[0.16359,0.42096],[-0.10877,-0.27989]],[[216.0128,135.07965],[0.29955,0.02093],[-2.41566,-0.16879]],[[208.60613,134.81841],[2.42535,-0.29198],[-4.95563,0.59659]],[[194.03405,140.1657],[3.81919,-3.54108],[-2.00563,1.85958]],[[188.37687,146.44012],[1.79497,-2.0797],[-2.03501,3.57297]],[[184.14794,158.30546],[0.67405,-4.07489],[-0.13788,0.83352]],[[184.25482,160.83773],[-0.83092,-0.15276],[0.79842,0.14678]],[[186.66667,160.5],[-0.81021,0.05056],[3.73029,-0.23279]],[[198,160.16667],[-3.73439,0.00639],[0,0]],[198.33334,160.16667],[[199.00868,160.26618],[-0.38388,-0.09951],[4.28833,-4.61257]],[[214.06997,148.50938],[-5.70192,3.34894],[1.03374,-0.60716]],[[217.16231,146.75322],[-1.03471,0.55439],[-0.03963,-2.63319]]],&quot;closed&quot;:true}]}" fill="#009812"/><path d="M245.75019,151.7144l1.33512,0.33432c3.7304,0.92019 7.99985,1.78056 9.48727,5.55784c1.36713,1.6675 2.50077,3.52672 3.82466,5.22876c1.81637,2.33519 4.85678,4.78066 5.96192,7.65509c0.31088,0.80858 0.19037,5.44943 0.19045,5.50341c0.0088,6.31181 -2.38992,10.64948 -5.09348,16.28273c-2.45547,5.11632 -5.25707,11.2115 -9.96387,14.79234c-4.20303,3.19758 -9.25566,4.63451 -14.35529,5.48867c-7.62383,-0.0264 -14.82642,-1.67377 -21.8996,-4.50178c-4.0305,-1.61148 -8.78364,-3.41905 -11.77804,-6.72607c-1.9874,-2.1949 -3.55438,-4.97815 -4.99417,-7.53784c-1.33178,-2.36766 -2.93087,-5.12604 -3.3802,-7.85138c-0.71377,-4.32925 0.05419,-9.50664 1.18182,-13.67596c4.81814,-8.5654 11.90395,-14.53393 20.30721,-19.4851c2.93981,-1.73212 5.77038,-3.43667 9.19388,-4.03491c6.24346,-1.09101 12.46334,0.45728 18.50194,2.00473c0.56567,0.73591 1.48038,0.96516 1.48038,0.96516z" data-paper-data="{&quot;noHover&quot;:false,&quot;origItem&quot;:[&quot;Path&quot;,{&quot;applyMatrix&quot;:true,&quot;segments&quot;:[[[244.24903,150.79471],[0.56567,0.73591],[-6.0386,-1.54745]],[[225.77554,148.79392],[6.24346,-1.09101],[-3.4235,0.59824]],[[216.5967,152.82396],[2.93981,-1.73212],[-8.40326,4.95117]],[[196.31542,172.27611],[4.81814,-8.5654],[-1.12763,4.16932]],[[195.13439,185.93288],[-0.71377,-4.32925],[0.44933,2.72534]],[[198.51138,193.77275],[-1.33178,-2.36766],[1.43979,2.55969]],[[203.49903,201.29929],[-1.9874,-2.1949],[2.9944,3.30702]],[[215.26181,208.01214],[-4.0305,-1.61148],[7.07318,2.828]],[[237.12713,212.50852],[-7.62383,-0.0264],[5.09964,-0.85415]],[[251.46147,207.02949],[-4.20303,3.19758],[4.7068,-3.58084]],[[261.40946,192.25862],[-2.45547,5.11632],[2.70356,-5.63325]],[[266.5,176],[0.0088,6.31181],[-0.00007,-0.05398]],[[266.31102,170.50387],[0.31088,0.80858],[-1.10514,-2.87443]],[[260.35426,162.86083],[1.81637,2.33519],[-1.32389,-1.70203]],[[256.53512,157.63966],[1.36713,1.6675],[-1.48742,-3.77728]],[[247.06033,152.09203],[3.7304,0.92019],[0,0]],[245.727,151.75869]],&quot;closed&quot;:true}]}" fill="#009812"/><path d="M353.18628,170.18888c-4.16339,0.01822 -8.82737,0.64133 -12.91396,0.04271c-3.72709,-0.54595 -6.82735,-0.94725 -10.44957,-1.02924c0.15299,-0.28405 0.25155,-0.6041 0.28444,-0.94071l0.28422,-2.58837c1.70027,-2.81143 3.63233,-5.61602 6.96967,-6.65385c7.09755,-2.20717 15.30442,4.25241 15.8252,11.16945z" data-paper-data="{&quot;noHover&quot;:false,&quot;origItem&quot;:[&quot;Path&quot;,{&quot;applyMatrix&quot;:true,&quot;segments&quot;:[[[337.39113,159.0594],[7.09755,-2.20717],[-3.33735,1.03784]],[[330.44115,165.66818],[1.70027,-2.81143],[0,0]],[[330.1547,168.2461],[0,0],[-0.03289,0.33661]],[[329.86918,169.1838],[0.15299,-0.28405],[3.62223,0.08199]],[[340.28289,170.18273],[-3.72709,-0.54595],[4.08659,0.59861]],[[353.14128,170.16709],[-4.16339,0.01822],[-0.52078,-6.91704]]],&quot;closed&quot;:true}]}" fill="#009812"/><path d="M325.61285,169.37569c-3.15474,0.39564 -6.18879,1.31239 -9.41272,1.5073c-5.30287,0.32061 -10.69337,0.05195 -16.01735,-0.22851c0.3209,-0.37213 0.53249,-0.84311 0.58927,-1.35791l0.31314,-2.5361c1.93318,-8.22712 13.63707,-11.96178 20.49667,-7.42344c2.62278,1.73524 1.40493,3.85398 2.71816,6.31096c0.02481,0.04642 0.04991,0.09316 0.07544,0.13912l-0.03098,0.01039l0.97919,2.9556c0.06819,0.2217 0.16573,0.43191 0.28918,0.62259z" data-paper-data="{&quot;noHover&quot;:false,&quot;origItem&quot;:[&quot;Path&quot;,{&quot;applyMatrix&quot;:true,&quot;segments&quot;:[[[325.27673,168.73588],[0.06819,0.2217],[0,0]],[324.29496,165.79057],[[324.32594,165.78025],[0,0],[-0.02553,-0.04596]],[[324.25042,165.64167],[0.02481,0.04642],[-1.31322,-2.45698]],[[321.53823,159.36144],[2.62278,1.73524],[-6.8596,-4.53833]],[[301.13406,166.74986],[1.93318,-8.22712],[0,0]],[[300.81814,169.27718],[0,0],[-0.05678,0.5148]],[[300.22736,170.63184],[0.3209,-0.37213],[5.32398,0.28046]],[[316.17799,170.83817],[-5.30287,0.32061],[3.22393,-0.19492]],[[325.56655,169.35683],[-3.15474,0.39564],[-0.12345,-0.19069]]],&quot;closed&quot;:true}]}" fill="#009812"/><path d="M296.32653,170.4424c-2.98479,-0.14842 -5.99642,-0.23646 -8.97446,-0.22938c-3.32741,0.00792 -6.09546,0.94396 -9.33436,1.3277c-0.79411,0.09409 -1.60855,0.12973 -2.42908,0.13863c0.19954,-0.52782 0.19807,-0.99469 0.19807,-0.99469l-0.07426,0.27397c1.70585,-7.11739 9.88707,-11.90847 16.53735,-7.28588c1.32394,0.92027 1.54772,2.88175 2.56947,4.12904c0.02706,0.03303 0.05427,0.06635 0.08176,0.09897l-0.02204,0.01267l1.30704,2.30078c0.04293,0.07847 0.08969,0.15512 0.14051,0.2282z" data-paper-data="{&quot;noHover&quot;:false,&quot;origItem&quot;:[&quot;Path&quot;,{&quot;applyMatrix&quot;:true,&quot;segments&quot;:[[[296.13865,170.19821],[0.04293,0.07847],[0,0]],[294.82939,167.90702],[[294.85141,167.89443],[0,0],[-0.02749,-0.03262]],[[294.76959,167.79595],[0.02706,0.03303],[-1.02175,-1.24729]],[[292.20489,163.69477],[1.32394,0.92027],[-6.65028,-4.62259]],[[275.75869,170.93967],[1.70585,-7.11739],[0,0]],[275.83333,170.66667],[[275.6338,171.65793],[0.19954,-0.52782],[0.82053,-0.0089]],[[278.06054,171.51493],[-0.79411,0.09409],[3.2389,-0.38375]],[[287.33333,170.16667],[-3.32741,0.00792],[2.97805,-0.00708]],[[296.27941,170.42567],[-2.98479,-0.14842],[-0.05082,-0.07307]]],&quot;closed&quot;:true}]}" fill="#009812"/><path d="M270.59654,182.85652c0.49779,-1.96453 0.80364,-4.03501 0.84804,-6.3182c2.37475,0.0778 4.80875,0.21113 7.1118,-0.05824c2.03492,-0.238 3.96423,-1.11016 6.00045,-1.33668c10.5491,-1.17353 21.37749,1.32866 31.9659,0.64848c4.05385,-0.26041 7.77291,-1.66048 11.85755,-1.64244c4.21172,0 7.24974,0.41544 11.38608,0.99251c4.36465,0.60892 9.19716,0.01893 13.61664,0.01893l1.33335,0.00018c0,0 0.01135,0 0.03252,-0.00076c0.13583,2.27029 0.06349,4.34446 -0.41976,6.76727c-0.07789,0.3905 0.07813,0.92512 -0.23352,1.17297c-1.05563,0.83955 -2.69701,0.07468 -4.04578,0.07049c-2.44443,-0.0076 -4.88899,0.00106 -7.33344,0.00106c-11.32137,0 -22.4505,0.60439 -33.68305,2.00846c-5.08702,0.64446 -10.28978,0.33357 -15.41463,0.33357c-3.87975,0 -8.04331,0.43497 -11.8756,-0.29647c-3.75127,-0.71597 -7.34619,-1.87952 -11.14656,-2.36112z" data-paper-data="{&quot;noHover&quot;:false,&quot;origItem&quot;:[&quot;Path&quot;,{&quot;applyMatrix&quot;:true,&quot;segments&quot;:[[[281.79238,185.20918],[-3.75127,-0.71597],[3.83229,0.73144]],[[293.66667,185.5],[-3.87975,0],[5.12484,0]],[[309.06185,185.13948],[-5.08702,0.64446],[11.23255,-1.40407]],[[342.66667,183.16667],[-11.32137,0],[2.44444,0]],[[350,183.16667],[-2.44443,-0.0076],[1.34877,0.00419]],[[354.04574,183.09669],[-1.05563,0.83955],[0.31165,-0.24785]],[[354.27917,181.92514],[-0.07789,0.3905],[0.48325,-2.42281]],[[354.69919,175.1659],[0.13583,2.27029],[-0.02117,0.00077]],[354.66667,175.16667],[[353.33334,175.16667],[0,0],[-4.41948,0]],[[339.71711,175.15061],[4.36465,0.60892],[-4.13633,-0.57707]],[[328.33333,174.16667],[4.21172,0],[-4.08464,-0.01805]],[[316.48868,175.8285],[4.05385,-0.26041],[-10.58841,0.68018]],[[284.60613,175.15174],[10.5491,-1.17353],[-2.03623,0.22652]],[[278.60613,176.48507],[2.03492,-0.238],[-2.30305,0.26936]],[[271.49441,176.54239],[2.37475,0.0778],[-0.0444,2.28319]],[[270.64642,182.85302],[0.49779,-1.96453],[3.80037,0.4816]]],&quot;closed&quot;:true}]}" fill="#009812"/></g></g></svg>