<svg version="1.1" xmlns="http://www.w3.org/2000/svg" xmlns:xlink="http://www.w3.org/1999/xlink" width="26.09836" height="24.74776" viewBox="0,0,26.09836,24.74776"><g transform="translate(-227.14104,-169.5018)"><g data-paper-data="{&quot;isPaintingLayer&quot;:true}" fill-rule="nonzero" stroke="none" stroke-width="0.5" stroke-linecap="butt" stroke-linejoin="miter" stroke-miterlimit="10" stroke-dasharray="" stroke-dashoffset="0" style="mix-blend-mode: normal"><path d="M243.43869,174.7409c-0.87682,1.47651 -2.7117,1.01779 -2.7117,1.01779c-4.51674,-1.40357 -7.68193,3.05761 -8.24192,7.18077c-0.0679,0.49997 -0.23173,2.48475 0.38074,3.06326c2.6469,2.50011 6.39918,3.03144 9.80085,3.16395c0.57307,0.02232 1.1738,0.39387 1.70996,0.1903c2.53708,-0.96326 3.53588,-8.01019 3.79487,-10.17898c0.08675,-3.76959 -2.04102,-4.40496 -4.73281,-4.43709zM236.60009,170.54885c0.96829,-1.55018 2.85715,-0.92056 2.85715,-0.92056l0.20943,0.20504c5.38144,0.01035 11.82988,-0.44558 13.44894,6.33067c0.25757,1.07799 0.03082,2.21645 0.04622,3.32467c-0.37259,2.88845 -1.05026,6.0699 -2.17542,8.77674c-0.80291,1.93159 -2.73583,4.8321 -4.69637,5.71094c-1.10364,0.49473 -2.41429,0.16036 -3.62338,0.1903c-4.39695,0.10888 -10.50453,-1.28836 -13.53248,-4.83605c-5.14406,-6.02702 0.50322,-16.59728 7.4659,-18.78176z" fill="#000000"/><path d="M248.21842,179.16071c-0.25899,2.16879 -1.28025,9.27661 -3.81733,10.23986c-0.53616,0.20357 -1.14548,-0.16417 -1.71855,-0.18649c-3.40167,-0.13251 -7.21404,-0.6879 -9.86094,-3.18801c-0.61248,-0.57851 -0.45413,-2.58117 -0.38623,-3.08114c0.55999,-4.12316 3.77831,-8.6397 8.29504,-7.23613c0,0 1.85115,0.46265 2.72797,-1.01386c2.69178,0.03213 4.84678,0.69617 4.76003,4.46576z" data-paper-data="{&quot;noHover&quot;:false,&quot;origItem&quot;:[&quot;Path&quot;,{&quot;applyMatrix&quot;:true,&quot;segments&quot;:[[[243.43869,174.7409],[2.69178,0.03213],[-0.87682,1.47651]],[[240.72699,175.75869],[0,0],[-4.51674,-1.40357]],[[232.48507,182.93946],[0.55999,-4.12316],[-0.0679,0.49997]],[[232.86582,186.00272],[-0.61248,-0.57851],[2.6469,2.50011]],[[242.66667,189.16667],[-3.40167,-0.13251],[0.57307,0.02232]],[[244.37662,189.35697],[-0.53616,0.20357],[2.53708,-0.96326]],[[248.1715,179.17799],[-0.25899,2.16879],[0.08675,-3.76959]]],&quot;closed&quot;:true}]}" fill="#1e6f00"/></g></g></svg>